<?xml version="1.0" standalone="no"?>
<!DOCTYPE svg PUBLIC "-//W3C//DTD SVG 20010904//EN"
 "http://www.w3.org/TR/2001/REC-SVG-20010904/DTD/svg10.dtd">
<svg version="1.0" xmlns="http://www.w3.org/2000/svg"
 width="1280.000000pt" height="960.000000pt" viewBox="0 0 1280.000000 960.000000"
 preserveAspectRatio="xMidYMid meet">
<metadata>
Created by potrace 1.15, written by Peter Selinger 2001-2017
</metadata>
<g transform="translate(0.000000,960.000000) scale(0.100000,-0.100000)"
fill="#000000" stroke="none">
<path d="M6127 9568 c-112 -91 -325 -350 -629 -763 -113 -154 -243 -323 -287
-377 -85 -101 -217 -228 -237 -228 -23 0 -93 92 -140 183 -157 308 -268 445
-419 520 -89 45 -153 50 -328 27 -85 -11 -195 -32 -244 -46 -253 -73 -543
-224 -711 -370 -31 -27 -85 -62 -120 -77 -469 -209 -815 -669 -1082 -1442 -23
-66 -73 -223 -111 -350 -81 -265 -124 -384 -185 -510 -151 -316 -346 -524
-606 -644 -159 -74 -277 -106 -643 -175 -132 -25 -273 -53 -312 -62 -70 -15
-73 -17 -73 -45 0 -18 4 -27 13 -24 36 14 186 42 181 34 -3 -5 -10 -9 -15 -9
-6 0 -48 -17 -95 -37 -77 -33 -84 -39 -84 -65 0 -15 2 -28 4 -28 2 0 42 18 89
40 139 64 331 124 667 209 329 84 413 108 545 161 454 180 739 526 944 1145
l68 207 7 -66 c15 -147 107 -356 257 -586 71 -109 219 -313 285 -392 21 -26
22 -30 8 -80 -26 -98 -52 -251 -89 -513 -37 -270 -73 -453 -107 -542 -18 -50
-23 -54 -106 -99 -260 -141 -559 -334 -724 -467 -150 -120 -455 -448 -661
-708 -76 -97 -93 -114 -103 -102 -6 9 -15 14 -21 12 -6 -2 -247 -170 -537
-374 -477 -335 -526 -373 -526 -397 0 -16 2 -28 5 -28 3 0 241 166 529 369
289 203 530 372 536 376 6 3 -14 -31 -44 -78 -106 -161 -156 -296 -141 -376
14 -73 174 -190 440 -321 231 -113 433 -189 948 -354 l38 -13 -67 -49 c-82
-60 -147 -137 -188 -224 -28 -58 -31 -75 -31 -155 0 -83 3 -96 35 -159 63
-127 190 -230 335 -271 76 -23 176 -16 270 19 38 14 73 22 77 18 4 -4 27 -47
52 -97 107 -213 251 -327 452 -356 l74 -11 -60 -36 c-34 -20 -124 -87 -202
-148 -87 -69 -185 -136 -257 -175 -63 -35 -179 -106 -256 -158 -369 -248 -446
-301 -437 -301 17 0 266 111 332 147 36 20 142 86 235 146 94 61 249 150 345
199 205 103 304 171 483 336 73 66 160 142 194 169 132 104 464 372 583 472
198 166 463 359 545 396 103 47 231 92 350 122 77 19 136 26 256 30 250 9 299
-2 815 -185 220 -78 352 -105 514 -106 156 0 225 15 334 72 203 106 341 325
427 677 38 157 36 183 -5 65 -202 -581 -450 -803 -840 -751 -117 16 -226 45
-501 135 -398 129 -476 146 -705 153 -235 7 -390 -25 -582 -121 -49 -24 -88
-42 -88 -40 0 2 11 32 25 66 13 35 31 88 39 118 8 30 30 93 49 140 19 47 48
126 66 175 47 128 141 321 207 423 68 105 221 260 320 324 151 98 306 165 629
272 252 83 287 90 402 83 76 -4 119 -14 242 -56 81 -28 154 -51 160 -51 8 0
11 11 9 28 -6 55 -161 108 -349 120 -302 20 -478 -28 -908 -245 -134 -68 -252
-123 -262 -123 -15 0 -13 11 21 88 229 529 574 1007 905 1254 214 160 360 194
890 205 261 5 311 4 385 -11 339 -69 897 -403 1487 -890 109 -90 120 -102 105
-114 -9 -7 -75 -49 -147 -94 -331 -205 -598 -444 -571 -513 12 -31 49 -13 144
68 395 341 840 537 1330 588 145 15 502 6 637 -16 537 -86 1066 -313 1536
-659 63 -46 116 -82 118 -80 2 1 -20 32 -48 67 -293 369 -920 628 -1771 734
-112 13 -217 17 -460 17 -338 0 -421 -9 -510 -54 l-41 -21 -147 104 c-689 487
-1292 825 -1618 907 -69 17 -112 20 -339 20 -357 0 -596 -22 -744 -70 -180
-57 -186 5 -15 175 100 100 267 234 364 293 l64 38 240 445 c270 500 305 549
537 774 213 206 343 271 664 334 179 35 299 44 490 38 190 -7 208 -10 515 -77
375 -81 452 -117 636 -291 115 -109 247 -216 353 -285 l45 -29 -35 -3 c-91 -7
-336 -46 -439 -68 -414 -92 -820 -278 -952 -436 -49 -58 -118 -155 -118 -164
0 -3 42 33 93 82 265 250 713 434 1243 511 l182 26 223 -32 c631 -89 963 -198
1310 -427 196 -129 356 -263 591 -493 82 -79 151 -142 154 -139 10 10 -33 97
-91 184 -44 66 -93 116 -238 248 -282 255 -377 326 -553 414 -243 122 -617
213 -1102 268 l-153 17 -117 77 c-144 94 -234 166 -378 301 -130 122 -212 170
-392 229 -237 77 -629 141 -962 156 l-148 7 -6 32 c-8 40 -149 217 -253 315
-93 89 -168 131 -283 158 -148 36 -146 30 -48 95 109 73 208 117 275 124 29 3
53 10 53 16 0 6 -21 8 -54 4 -69 -7 -202 -68 -307 -142 l-79 -55 -78 25 c-42
15 -80 30 -84 34 -12 11 114 162 209 250 48 44 84 83 81 87 -15 15 -161 -131
-303 -303 l-21 -25 -64 27 c-64 27 -162 80 -232 126 l-38 24 0 958 0 957 -25
0 -25 0 0 -809 0 -809 -49 -37 c-27 -21 -59 -51 -70 -66 -12 -16 -27 -29 -33
-29 -7 0 -36 23 -65 52 l-52 51 45 65 c25 35 43 67 40 69 -9 9 -24 -6 -61 -62
-20 -30 -39 -55 -44 -55 -4 0 -24 17 -44 38 l-37 38 0 777 0 777 -30 0 -30 0
0 -742 0 -742 -133 132 c-115 113 -143 136 -208 166 -149 68 -323 93 -521 76
-109 -9 -337 -49 -382 -66 -9 -3 -16 -4 -16 -1 0 3 46 64 103 135 56 71 176
225 267 343 202 262 343 430 490 582 l112 117 -35 0 c-31 0 -45 -11 -138 -108
-140 -144 -277 -311 -544 -657 -327 -425 -338 -437 -427 -470 -128 -49 -251
-110 -337 -169 -128 -87 -122 -58 17 80 117 117 161 174 557 710 147 200 287
366 423 501 112 111 113 113 80 113 -22 -1 -46 -11 -71 -32z m-1742 -712 c124
-61 255 -221 379 -461 64 -124 138 -228 190 -265 20 -14 36 -27 36 -30 1 -17
-326 -270 -442 -342 -115 -71 -145 -82 -350 -127 -101 -22 -281 -63 -402 -90
-120 -28 -220 -51 -222 -51 -3 0 10 24 27 53 63 107 160 315 190 407 22 67 33
122 37 187 5 106 -4 140 -51 179 -63 53 -154 14 -227 -94 -31 -47 -38 -52 -71
-52 -72 0 -177 -112 -231 -248 -18 -46 -22 -77 -23 -162 0 -96 2 -109 27 -151
34 -57 88 -106 147 -132 l45 -20 -185 -47 c-499 -128 -736 -212 -829 -296
l-40 -36 14 38 c106 298 251 579 402 781 179 238 457 468 672 554 42 17 81 46
152 112 120 115 244 207 345 258 112 56 165 69 266 66 70 -3 96 -8 144 -31z
m-485 -10 c0 -2 -42 -34 -93 -70 -52 -36 -137 -107 -190 -157 -83 -78 -114
-99 -224 -154 -351 -176 -645 -493 -862 -926 -114 -228 -177 -396 -321 -859
-117 -374 -264 -644 -459 -839 -110 -110 -206 -179 -347 -249 -95 -48 -243
-106 -250 -99 -2 2 25 22 59 44 135 89 283 251 383 419 103 173 175 354 280
699 294 976 616 1470 1114 1713 63 31 137 75 163 99 153 135 375 256 632 344
123 43 115 40 115 35z m2518 -435 c139 -40 161 -57 384 -285 139 -140 206
-216 202 -226 -26 -71 -55 -195 -60 -261 -7 -80 -7 -80 -33 -74 -49 10 -176
24 -223 25 l-46 0 -165 318 c-90 174 -170 338 -177 364 -22 83 -66 107 -89 50
-6 -15 -45 -214 -87 -442 -41 -228 -78 -418 -82 -421 -80 -64 -121 -93 -192
-133 -117 -67 -183 -120 -280 -223 l-82 -88 -30 35 c-150 177 -288 473 -288
617 0 44 3 53 18 53 24 0 92 -66 156 -154 124 -166 140 -126 21 54 -93 140
-183 188 -235 125 -20 -24 -17 -122 5 -205 42 -150 125 -312 237 -460 35 -46
67 -89 72 -95 6 -9 -6 -34 -40 -79 -28 -36 -101 -152 -164 -257 -63 -105 -118
-193 -122 -195 -4 -3 -29 -7 -55 -11 l-48 -5 -18 40 c-30 68 -72 64 -83 -9 -7
-43 8 -38 -189 -60 -247 -27 -443 -77 -631 -160 l-112 -50 -66 40 c-326 200
-634 248 -786 122 -48 -39 -88 -116 -104 -198 -8 -37 -32 -108 -54 -158 -21
-49 -45 -107 -51 -128 -11 -31 -15 -36 -27 -26 -25 21 -230 302 -293 401 -81
130 -163 295 -196 398 -22 68 -28 105 -29 186 -1 93 1 105 29 159 39 77 99
122 229 174 208 82 773 233 1396 371 343 76 329 74 540 110 322 56 420 80 420
101 0 15 -24 14 -202 -8 -100 -13 -183 -21 -185 -20 -1 2 39 33 90 69 51 36
151 114 222 173 152 126 254 194 384 260 255 127 375 164 686 209 17 2 104 3
195 1 131 -3 180 -8 238 -24z m-2669 -140 c77 -77 8 -345 -171 -664 -55 -98
-63 -108 -84 -103 -41 11 -74 25 -74 33 0 5 22 58 49 118 104 235 143 399 111
475 -12 29 -11 35 16 73 33 46 87 87 115 87 11 0 28 -9 38 -19z m2541 -152
c40 -78 269 -490 282 -506 12 -15 -1 -18 -170 -34 l-132 -12 -30 28 c-33 32
-60 106 -60 166 0 39 46 371 56 402 9 30 23 19 54 -44z m-2793 -22 c3 -4 15
-7 26 -7 18 0 19 -5 14 -62 -8 -86 -86 -309 -154 -442 l-15 -28 -25 23 c-65
60 -88 168 -59 275 31 118 131 255 181 250 14 -1 28 -6 32 -9z m3823 -257 c0
-60 -3 -110 -6 -110 -11 0 -124 93 -124 102 0 13 108 118 120 118 6 0 10 -47
10 -110z m-230 3 l51 -48 -25 -56 c-13 -31 -33 -91 -42 -133 -12 -51 -22 -75
-30 -72 -7 3 -29 8 -48 12 -34 6 -36 8 -36 48 0 89 49 296 70 296 5 0 32 -21
60 -47z m84 -72 c9 -15 158 -125 230 -170 59 -37 222 -121 259 -134 9 -3 7
-13 -6 -41 -14 -30 -21 -36 -35 -30 -9 5 -66 9 -127 9 -70 1 -119 5 -134 14
-12 7 -32 10 -43 8 -18 -5 -19 -2 -14 31 6 36 6 37 -10 15 -9 -13 -21 -23 -27
-23 -6 0 -50 17 -99 37 -57 25 -88 43 -88 53 0 24 26 118 50 183 20 54 32 67
44 48z m-289 -259 c50 -7 50 -7 53 -47 5 -60 22 -68 22 -11 0 40 3 47 18 42 9
-3 29 -8 45 -12 15 -3 27 -13 27 -21 0 -12 3 -13 14 -4 10 9 24 7 60 -8 25
-11 46 -23 46 -27 0 -3 -8 -18 -18 -32 -25 -35 -42 -87 -42 -126 l0 -30 53 51
c28 28 67 58 84 67 31 16 34 15 71 -8 l38 -24 39 21 c47 23 157 34 197 18 l27
-10 -18 -43 c-27 -62 -34 -88 -23 -88 5 0 19 27 31 60 12 33 27 60 33 60 16 0
108 -52 108 -62 0 -4 -14 -33 -31 -64 -20 -35 -28 -59 -22 -65 6 -6 18 9 33
41 13 28 29 55 36 61 16 13 65 -44 103 -119 16 -31 53 -96 83 -144 60 -94 84
-162 73 -205 -4 -17 -89 -111 -228 -253 -334 -338 -316 -313 -592 -822 l-240
-442 -82 -47 c-110 -63 -233 -160 -362 -286 -58 -56 -107 -103 -107 -103 -1 0
-16 30 -34 66 -44 89 -166 249 -244 321 l-63 57 41 41 c56 54 146 164 146 177
0 7 -15 9 -42 5 l-43 -6 67 69 c66 68 137 191 154 265 7 29 7 29 -14 15 -11
-8 -48 -50 -81 -92 -34 -43 -66 -78 -72 -78 -6 0 -33 -19 -59 -42 -65 -58
-151 -109 -213 -125 -53 -13 -147 -18 -147 -7 0 15 80 106 204 232 71 72 125
132 118 132 -7 0 -38 -14 -69 -32 l-56 -32 -22 28 -21 27 -75 -61 c-88 -72
-129 -93 -233 -120 -123 -31 -161 -24 -190 36 -25 53 -21 59 46 73 82 17 146
50 202 106 52 53 56 65 21 65 -14 0 -25 3 -25 8 0 4 23 41 50 82 27 41 50 79
50 83 0 13 -31 -8 -100 -67 -78 -67 -224 -130 -175 -76 24 26 13 36 -17 16
-14 -9 -65 -33 -115 -55 l-90 -38 -108 191 c-60 105 -119 209 -131 231 l-23
40 45 -3 c24 -2 56 -1 69 2 43 11 101 73 163 174 100 162 182 229 317 259 68
15 113 32 88 33 -7 0 -13 4 -13 9 0 9 76 24 180 36 55 6 54 6 -65 -48 -203
-91 -435 -233 -419 -258 3 -5 24 6 47 25 148 120 501 282 720 331 42 9 77 21
77 26 0 5 -3 9 -7 9 -19 0 -177 -41 -229 -59 -47 -17 -58 -18 -70 -7 -11 11 7
19 109 45 67 18 129 35 137 38 8 4 -38 10 -103 15 -91 6 -124 12 -145 27 -22
16 -163 41 -230 41 -5 0 -9 17 -8 37 1 46 33 67 126 82 81 13 348 13 455 0
120 -15 348 -21 364 -11 7 6 11 14 7 20 -11 19 -402 110 -481 112 -123 4 -138
28 -53 83 l52 33 85 -9 c60 -6 137 -25 250 -63 165 -54 204 -64 165 -41 -50
30 -104 81 -92 88 8 5 1 10 -18 15 -16 4 -51 19 -79 33 l-50 26 33 3 c38 4 39
8 10 40 l-23 25 185 -7 c102 -4 208 -10 235 -14z m898 -88 l79 -26 -42 -43
-43 -43 -56 36 c-31 20 -58 37 -59 38 -5 3 31 64 38 64 3 0 40 -12 83 -26z
m242 -70 c55 -14 127 -40 160 -57 80 -43 214 -178 293 -295 65 -97 81 -137 64
-154 -5 -5 -63 -16 -128 -24 -81 -10 -138 -22 -177 -40 -54 -24 -58 -24 -85
-9 -17 11 -40 45 -64 95 -45 93 -130 223 -226 341 l-69 86 45 47 c35 36 50 46
66 42 12 -4 66 -18 121 -32z m-4439 -1018 c119 -40 272 -117 387 -195 53 -35
578 -475 670 -560 4 -4 -22 -106 -59 -227 -75 -251 -43 -203 -287 -422 l-137
-123 -45 46 c-53 53 -103 149 -174 335 -28 74 -58 149 -67 165 -14 29 -14 27
-9 -35 14 -148 60 -262 178 -439 l76 -114 -67 -69 c-190 -196 -331 -442 -397
-693 l-27 -102 -87 -5 c-69 -4 -115 -15 -226 -53 -77 -27 -147 -48 -155 -47
-428 28 -576 17 -820 -60 -113 -35 -380 -163 -380 -182 0 -39 27 -34 145 26
143 73 245 112 385 145 90 21 137 26 323 30 135 3 222 2 228 -4 7 -7 -64 -41
-201 -99 -115 -49 -210 -91 -210 -94 0 -3 46 -20 103 -39 181 -61 217 -81 331
-189 84 -79 296 -243 362 -280 10 -5 5 -24 -21 -77 -36 -73 -61 -187 -52 -239
5 -31 2 -33 -86 -88 -203 -124 -381 -280 -480 -419 l-47 -66 -52 9 c-70 13
-189 4 -258 -19 l-55 -18 -305 101 c-534 177 -826 309 -1051 475 -85 63 -96
87 -75 168 47 186 244 458 649 899 227 247 297 294 1111 736 266 145 446 260
469 301 6 12 1 15 -30 15 -60 0 -126 -25 -270 -100 -74 -39 -135 -70 -137 -70
-2 0 4 27 15 59 23 77 53 236 79 431 56 411 132 726 216 892 13 26 24 58 24
72 0 40 39 149 63 177 60 69 119 90 248 85 76 -3 117 -11 205 -40z m1438 -104
c17 -49 74 -159 156 -301 72 -122 144 -249 160 -281 43 -86 65 -236 30 -215
-5 3 -39 46 -76 96 -37 49 -68 88 -70 86 -2 -2 5 -50 17 -108 11 -57 17 -114
14 -126 -16 -67 -92 10 -191 194 -69 128 -69 128 -72 88 -3 -35 19 -223 35
-295 4 -20 -6 -13 -50 35 -66 72 -78 62 -47 -36 25 -80 25 -79 -5 -79 -33 0
-90 52 -109 101 -16 40 -16 48 24 270 70 395 130 649 154 649 2 0 16 -35 30
-78z m-226 15 c43 -46 40 -68 -48 -352 -75 -238 -85 -264 -99 -252 -9 8 -128
110 -265 228 -137 118 -268 230 -292 249 -24 19 -42 40 -40 45 4 15 107 54
190 71 105 21 218 31 387 33 140 1 146 0 167 -22z m1007 -922 c44 -14 98 -29
121 -35 85 -21 207 -127 317 -275 97 -130 147 -254 147 -365 0 -36 -3 -39 -80
-84 -210 -122 -445 -428 -822 -1071 -126 -215 -138 -229 -193 -250 -85 -33
-221 2 -257 65 -15 27 -20 29 -43 20 -35 -13 -48 16 -17 41 19 15 22 27 22 86
0 80 -8 113 -25 113 -11 0 -191 -263 -225 -328 -6 -13 -9 -35 -6 -48 11 -43
68 -43 194 -3 74 25 82 21 124 -59 39 -72 44 -110 19 -133 -27 -26 -58 -86
-66 -131 l-7 -36 -41 15 c-23 8 -72 16 -109 17 -85 1 -112 -17 -155 -104 -31
-64 -46 -80 -57 -62 -16 26 20 88 96 168 44 46 74 84 66 84 -24 0 -147 -135
-171 -188 l-22 -50 -78 31 -78 30 38 40 c48 50 200 187 232 210 14 9 22 20 18
23 -11 11 -66 -33 -195 -153 l-118 -111 -94 28 c-89 26 -94 29 -106 61 -26 75
-67 142 -130 208 l-65 70 22 43 c12 24 28 51 37 61 16 18 11 34 -8 22 -6 -4
-24 -31 -41 -60 l-30 -53 -75 39 c-41 21 -84 39 -95 39 -39 0 -35 32 10 71 42
37 122 75 274 130 82 29 94 35 85 44 -8 8 -238 -79 -308 -116 -62 -33 -110
-79 -110 -105 0 -10 -12 -14 -39 -14 -44 0 -119 -36 -219 -106 -54 -37 -69
-44 -86 -36 -12 5 -79 56 -151 112 -226 177 -352 252 -548 328 -13 5 18 22
110 61 480 204 573 235 710 236 l92 0 16 72 c28 126 64 224 130 358 110 221
236 369 553 652 101 90 187 163 190 163 4 0 6 -20 4 -46 -6 -67 15 -316 38
-446 17 -101 64 -285 76 -297 15 -16 11 20 -15 115 -49 175 -81 421 -81 611 0
60 1 64 27 74 60 23 230 7 249 -22 3 -5 -7 -45 -21 -90 -39 -124 -55 -238 -54
-383 0 -130 8 -182 23 -158 4 7 4 17 1 22 -4 6 -6 71 -6 144 0 142 23 287 62
392 l21 56 33 -36 c56 -61 100 -48 315 89 82 52 197 118 254 146 57 28 115 62
127 76 21 22 29 24 69 18 25 -4 81 -17 125 -30z m-493 -2179 c-41 -88 -61
-106 -117 -106 -41 0 -45 3 -51 28 -10 45 -21 86 -29 105 -7 17 -2 18 76 12
73 -5 88 -4 114 13 17 11 32 18 34 16 2 -2 -10 -32 -27 -68z m-1420 11 c68
-31 120 -76 167 -146 40 -59 81 -134 81 -149 0 -11 -47 -21 -300 -67 -208 -38
-274 -62 -135 -49 44 5 204 8 355 9 258 0 281 -1 365 -24 130 -34 232 -89 304
-166 82 -88 104 -148 104 -280 0 -119 -19 -202 -70 -295 -56 -103 -78 -127
-197 -205 -61 -41 -121 -82 -133 -91 -20 -14 -18 -5 19 88 63 159 80 224 80
313 1 164 -83 281 -239 330 -39 13 -53 23 -57 41 -4 13 -16 29 -28 35 -36 19
-146 13 -210 -11 -54 -20 -93 -54 -83 -71 6 -8 -40 -24 -185 -64 l-95 -26 -68
-212 c-76 -238 -101 -355 -92 -437 21 -194 225 -360 444 -360 l66 0 -35 -27
c-19 -15 -84 -75 -145 -133 -60 -58 -135 -124 -165 -147 -183 -137 -374 -169
-535 -89 -54 27 -90 55 -144 111 -62 66 -81 96 -156 247 -130 266 -155 406
-106 593 73 276 265 510 613 746 l117 79 0 79 c0 189 108 349 271 402 42 14
136 2 192 -24z m1288 -228 c0 -30 -12 -56 -57 -121 -70 -103 -145 -259 -193
-400 l-36 -106 -12 70 c-16 93 -53 167 -116 235 l-53 57 33 67 c18 37 39 71
46 75 22 14 111 6 182 -16 68 -21 70 -21 83 -3 8 10 12 26 9 36 -8 34 23 114
55 142 39 32 59 20 59 -36z m-868 -571 c75 -35 122 -79 148 -140 28 -65 30
-158 6 -243 -22 -73 -96 -256 -141 -345 -72 -144 -213 -220 -407 -220 -179 0
-329 85 -377 213 -31 81 5 287 100 573 24 74 34 93 52 97 12 2 85 20 162 40
77 19 156 38 175 41 31 6 29 3 -25 -29 -116 -69 -150 -130 -104 -189 31 -40
96 -36 188 10 111 55 149 126 101 186 -10 14 -16 29 -12 33 12 12 78 -1 134
-27z m-1604 -243 c3 -2 -7 -31 -21 -62 -41 -94 -58 -162 -64 -263 -7 -119 8
-216 52 -345 40 -115 40 -114 -55 -142 -144 -44 -319 7 -439 127 -165 165
-140 388 63 552 71 57 199 126 259 138 41 9 195 5 205 -5z"/>
<path d="M3954 6985 c-14 -34 -13 -39 3 -68 48 -81 357 -196 941 -348 107 -28
196 -49 198 -46 6 6 -347 122 -496 162 -184 50 -233 68 -395 142 -179 82 -205
101 -202 150 1 29 -2 38 -16 41 -12 2 -22 -7 -33 -33z"/>
<path d="M7460 7193 c-49 -32 -92 -79 -116 -125 -13 -26 -24 -49 -24 -52 0 -8
94 -36 123 -36 27 0 29 2 24 30 -9 41 10 48 42 16 14 -15 35 -33 46 -41 18
-12 20 -24 19 -112 -2 -157 -50 -330 -127 -460 -42 -71 -88 -88 -216 -78 -98
8 -117 -1 -68 -31 46 -28 196 -27 251 1 96 48 202 318 213 541 l6 110 106 -63
c127 -75 181 -98 216 -89 26 7 46 41 38 64 -7 17 -42 15 -49 -3 -5 -12 -16
-10 -68 9 -83 31 -208 94 -241 120 -15 13 -36 49 -51 91 -24 67 -65 125 -89
125 -6 0 -22 -7 -35 -17z"/>
<path d="M6632 6951 c-62 -21 -171 -93 -224 -148 -51 -52 -133 -191 -156 -266
-22 -68 -36 -157 -24 -157 4 0 32 42 62 92 105 177 148 234 244 328 104 102
120 112 180 114 40 1 52 11 38 32 -14 22 -66 24 -120 5z"/>
<path d="M7171 6779 c-255 -127 -747 -558 -837 -732 -25 -47 -35 -89 -22 -85
7 3 15 16 19 30 38 145 500 570 815 752 44 25 91 48 107 52 28 6 38 24 13 24
-7 0 -50 -18 -95 -41z"/>
<path d="M6091 6745 c-52 -23 -150 -96 -219 -165 -99 -99 -208 -250 -180 -250
7 0 23 18 35 39 71 124 233 283 350 343 35 18 63 36 63 41 0 10 -10 8 -49 -8z"/>
<path d="M7165 6583 c-122 -84 -204 -154 -312 -266 -109 -114 -253 -317 -224
-317 5 0 35 39 67 88 128 197 300 362 544 523 13 8 19 18 14 21 -5 3 -45 -19
-89 -49z"/>
<path d="M5771 4714 c-181 -91 -400 -439 -534 -849 -40 -120 -98 -338 -92
-343 9 -10 15 5 49 129 66 238 138 434 226 610 99 196 260 388 373 442 31 15
57 30 57 32 0 11 -30 3 -79 -21z"/>
<path d="M5445 4626 c-17 -13 -79 -56 -138 -95 -162 -107 -342 -289 -422 -425
-35 -60 -44 -153 -19 -195 22 -37 34 -40 34 -6 0 36 45 149 79 198 45 66 183
212 323 342 116 107 188 189 177 200 -3 2 -18 -7 -34 -19z"/>
<path d="M6019 4569 c-287 -213 -571 -585 -738 -967 -42 -96 -47 -112 -32
-112 4 0 16 21 26 48 33 88 164 336 233 442 140 215 368 463 527 575 89 62 89
62 77 69 -6 3 -47 -22 -93 -55z"/>
<path d="M3400 3695 c-132 -22 -386 -94 -363 -102 7 -2 79 8 160 23 165 32
301 37 376 15 l47 -14 -6 -51 c-3 -28 -14 -89 -24 -136 -10 -47 -16 -88 -13
-93 9 -15 85 -48 99 -43 18 7 18 175 1 316 l-12 95 -95 2 c-52 1 -129 -5 -170
-12z"/>
<path d="M4453 3315 c-67 -45 -78 -61 -114 -175 -40 -125 -44 -228 -9 -265 30
-32 40 -24 40 29 0 63 28 213 46 249 29 57 96 137 114 137 25 0 50 10 50 20 0
16 -32 40 -53 40 -12 0 -46 -16 -74 -35z"/>
<path d="M3347 2040 c-44 -35 -101 -162 -105 -236 -4 -57 -2 -65 21 -88 30
-30 71 -34 105 -10 73 51 104 260 50 329 -24 30 -37 31 -71 5z"/>
</g>
</svg>
