<?xml version="1.0" standalone="no"?>
<!DOCTYPE svg PUBLIC "-//W3C//DTD SVG 20010904//EN"
 "http://www.w3.org/TR/2001/REC-SVG-20010904/DTD/svg10.dtd">
<svg version="1.0" xmlns="http://www.w3.org/2000/svg"
 width="1280.000000pt" height="1052.000000pt" viewBox="0 0 1280.000000 1052.000000"
 preserveAspectRatio="xMidYMid meet">
<metadata>
Created by potrace 1.15, written by Peter Selinger 2001-2017
</metadata>
<g transform="translate(0.000000,1052.000000) scale(0.100000,-0.100000)"
fill="#000000" stroke="none">
<path d="M8553 10495 c-92 -46 -139 -133 -177 -325 -40 -207 -49 -326 -43
-587 4 -142 12 -274 21 -328 32 -184 32 -171 0 -170 -20 0 -32 -7 -38 -21 -9
-20 -10 -20 -63 9 -68 37 -143 57 -211 57 -92 0 -121 -38 -62 -82 34 -25 25
-38 -27 -38 -82 0 -108 -41 -53 -82 l30 -22 -77 -23 c-42 -13 -86 -23 -98 -23
-40 0 -179 -41 -251 -75 -324 -149 -548 -444 -631 -828 -26 -118 -25 -457 0
-577 60 -282 165 -525 341 -790 385 -579 912 -979 1490 -1130 114 -30 102 -31
-89 -5 -494 69 -768 184 -1023 429 -128 123 -204 217 -331 406 -173 259 -275
459 -357 705 -196 591 -105 1173 244 1545 172 184 377 298 603 335 49 8 94 17
99 20 15 9 12 41 -5 55 -30 25 -226 -18 -368 -82 -66 -29 -104 -40 -134 -39
-56 2 -328 -25 -440 -44 -596 -102 -1146 -331 -1615 -673 -73 -52 -88 -68 -88
-90 0 -24 -20 -39 -170 -135 -171 -110 -190 -128 -155 -157 9 -7 25 -10 42 -5
29 7 -3 -25 -169 -171 -72 -62 -88 -101 -48 -111 11 -3 20 -7 20 -9 0 -3 -25
-34 -56 -71 -296 -348 -503 -750 -615 -1192 -36 -145 -38 -156 -22 -173 10
-11 24 -16 35 -12 23 7 23 7 -12 -110 -32 -105 -31 -136 1 -136 24 0 24 -12 0
-227 -24 -200 -39 -656 -23 -675 7 -10 -9 -53 -60 -163 -205 -438 -319 -778
-379 -1125 -15 -92 -22 -183 -25 -347 -3 -123 -8 -223 -12 -223 -34 -2 -527
202 -714 295 l-56 28 -17 96 c-10 53 -27 125 -39 161 -20 61 -23 65 -54 68
-26 3 -34 -1 -40 -19 -8 -21 -12 -18 -50 37 -22 33 -61 84 -86 114 -25 30 -46
61 -46 70 0 26 -99 137 -180 201 -144 114 -340 189 -537 204 -73 6 -97 4 -122
-8 -31 -15 -31 -15 -61 21 -26 32 -28 37 -14 45 29 17 262 2 354 -22 243 -64
452 -218 582 -432 67 -110 74 -119 93 -119 19 0 45 28 45 49 0 9 -24 58 -52
107 -71 121 -248 299 -363 365 -163 94 -311 138 -495 146 -125 6 -296 -13
-341 -38 -19 -10 -60 3 -91 29 -25 21 -56 9 -119 -47 -45 -40 -58 -47 -73 -39
-45 25 -276 -68 -396 -160 -281 -213 -431 -552 -429 -965 0 -78 4 -167 8 -197
5 -30 7 -56 6 -58 -4 -5 -31 91 -50 178 -23 106 -31 285 -15 362 16 86 45 159
86 220 44 65 43 102 -2 106 -25 3 -36 -3 -59 -34 -43 -56 -83 -144 -104 -225
-15 -60 -23 -75 -40 -77 -11 -2 -26 -12 -31 -22 -6 -11 -12 -93 -14 -182 -2
-90 -10 -197 -17 -238 -20 -115 -18 -397 4 -497 14 -62 15 -87 7 -103 -9 -17
-5 -25 26 -56 30 -31 35 -41 30 -68 -7 -38 1 -52 38 -66 23 -9 27 -14 22 -35
-9 -34 9 -65 37 -65 13 0 48 -26 92 -69 156 -154 354 -263 640 -356 94 -30
190 -59 213 -65 41 -11 43 -12 28 -29 -21 -24 -20 -44 4 -66 20 -18 22 -18 66
3 40 20 50 21 79 11 27 -10 51 -8 153 15 67 15 168 42 224 61 64 22 113 33
129 30 26 -6 52 10 62 37 3 9 11 6 27 -10 27 -29 68 -25 143 13 27 14 60 25
73 25 13 0 29 8 36 17 41 52 155 153 176 153 16 0 32 15 57 55 19 30 35 57 35
61 0 4 34 59 75 121 86 128 170 296 214 428 55 165 72 273 78 478 3 103 7 187
8 187 2 0 67 -30 146 -66 142 -65 410 -175 561 -229 67 -24 78 -31 78 -51 0
-55 22 -123 41 -129 36 -12 51 12 43 72 -3 29 -5 53 -3 53 2 0 53 -16 114 -35
674 -215 1400 -283 2130 -200 156 18 398 58 514 86 46 10 85 18 87 16 2 -1
-43 -30 -99 -63 -56 -33 -222 -133 -368 -221 -146 -88 -326 -194 -400 -236
-145 -81 -501 -260 -637 -321 l-83 -38 -39 36 c-45 41 -76 51 -125 42 -62 -12
-96 -83 -52 -110 15 -9 22 -7 37 11 21 26 57 30 86 8 45 -34 -17 -47 -446 -90
-326 -33 -474 -52 -531 -70 -16 -5 -18 -2 -13 22 4 20 0 36 -14 53 -15 18 -17
29 -9 49 23 61 -41 134 -129 147 -30 4 -52 16 -75 40 -41 43 -62 43 -100 0
-41 -48 -113 -91 -183 -111 -56 -16 -59 -16 -84 2 -14 10 -45 55 -69 99 -70
126 -117 164 -204 164 -90 0 -141 -109 -93 -201 17 -34 74 -83 124 -109 101
-52 314 -67 429 -31 34 10 61 18 61 16 0 -1 -7 -17 -16 -34 -25 -50 -13 -99
36 -142 30 -27 40 -44 40 -66 0 -74 77 -86 180 -30 77 42 168 71 270 86 86 13
454 51 485 51 24 -1 -168 -73 -362 -135 -84 -28 -144 -52 -147 -61 -7 -19 10
-54 27 -54 31 0 398 128 626 217 135 54 145 56 170 42 37 -21 41 -76 8 -107
-13 -13 -101 -48 -213 -86 -172 -58 -203 -65 -324 -77 -189 -17 -437 -16 -525
4 -173 39 -313 117 -398 223 -26 32 -54 60 -63 62 -50 11 -60 -82 -18 -166 30
-61 65 -90 155 -131 121 -54 200 -69 598 -108 l54 -5 -192 -94 c-106 -51 -221
-114 -255 -138 -95 -68 -145 -152 -145 -246 -1 -128 103 -210 264 -210 116 0
242 37 503 149 78 34 146 61 150 61 5 0 26 -25 47 -55 91 -132 243 -198 460
-199 109 -1 125 2 170 24 67 34 98 80 92 138 l-5 44 27 -26 c41 -39 115 -67
176 -67 60 0 142 36 174 77 l17 21 27 -23 c125 -107 366 24 402 220 5 27 11
34 18 27 6 -6 23 -11 38 -11 46 0 196 48 279 90 l79 40 -6 -35 c-7 -46 12 -53
93 -32 35 10 129 24 210 33 253 26 374 86 430 214 15 33 24 41 53 46 20 3 95
23 166 45 120 36 328 69 343 54 9 -8 7 -9 -208 -69 -318 -89 -469 -172 -420
-231 19 -23 35 -18 92 25 29 21 83 51 121 65 66 24 73 25 156 14 116 -16 341
-5 455 21 170 38 316 101 457 195 l82 55 66 -27 c37 -15 104 -31 154 -37 103
-12 91 9 107 -196 19 -242 54 -377 120 -469 26 -35 28 -43 19 -75 -13 -49 5
-144 41 -216 59 -116 186 -223 380 -321 97 -49 157 -59 213 -35 27 11 37 12
36 3 -4 -31 7 -41 84 -77 145 -68 245 -85 341 -56 138 42 215 161 220 339 1
54 8 83 25 117 64 121 -1 291 -144 375 -54 32 -151 62 -222 70 -118 13 -103 0
-192 178 -45 89 -97 203 -116 252 -35 86 -36 93 -26 150 6 33 25 346 42 695
17 349 38 781 48 959 l16 323 55 17 c103 32 181 81 270 170 48 47 107 96 135
110 109 54 212 193 261 353 l18 58 60 20 c243 81 472 170 480 186 8 17 21 19
130 19 115 0 124 2 187 31 117 55 188 143 205 250 21 137 -105 281 -287 329
-75 20 -116 19 -128 -4 -16 -29 7 -47 73 -60 119 -22 209 -79 245 -154 41 -85
18 -172 -63 -244 -104 -92 -253 -103 -494 -39 l-52 14 -47 -49 c-67 -70 -135
-101 -237 -107 -57 -2 -104 -12 -156 -32 -97 -36 -1969 -454 -2225 -496 -152
-25 -489 -26 -625 -1 -138 26 -300 70 -419 114 -145 53 -360 162 -384 195 -18
24 -18 28 -4 48 14 20 14 26 0 55 -15 30 -14 34 4 52 17 17 21 45 32 244 19
327 44 446 128 597 43 78 42 108 -5 105 -39 -1 -41 -16 19 153 37 105 41 124
30 138 -11 13 -24 15 -55 11 -31 -4 -49 -1 -74 15 -37 23 -64 76 -55 108 11
44 -46 72 -67 33 -14 -27 -13 -75 3 -114 18 -42 87 -103 126 -112 17 -4 31
-11 31 -17 0 -5 -23 -75 -51 -154 -42 -117 -49 -147 -39 -159 7 -8 19 -15 27
-15 17 0 17 -3 -21 -101 -39 -103 -54 -198 -67 -419 -6 -113 -13 -207 -15
-208 -1 -2 -15 6 -31 18 -31 22 -57 19 -67 -7 -4 -9 5 -40 19 -70 21 -47 22
-53 7 -49 -27 9 -44 -8 -40 -40 2 -18 -4 -36 -15 -47 -10 -10 -17 -24 -15 -30
10 -31 259 -176 434 -252 292 -128 567 -187 874 -187 205 0 349 19 655 86 139
31 204 41 213 34 17 -15 -163 -156 -403 -316 -229 -153 -243 -160 -515 -263
-290 -110 -521 -209 -747 -322 -169 -85 -204 -99 -348 -135 -454 -116 -828
-162 -1311 -162 -571 0 -1068 81 -1609 262 l-40 13 -8 80 c-10 99 -1 314 19
458 52 373 179 747 435 1276 49 101 89 192 89 202 0 10 -9 23 -20 29 -17 9
-24 6 -43 -14 l-24 -25 3 52 c2 29 6 124 8 212 2 88 16 263 31 390 27 227 27
230 7 243 -19 12 -18 17 29 174 52 170 52 188 3 188 -13 0 -28 -8 -33 -17 -20
-34 -11 5 29 130 140 438 395 855 714 1167 64 63 79 93 55 117 -7 7 23 40 101
109 100 88 111 102 106 126 -5 25 4 33 170 139 97 61 178 118 181 126 3 7 -1
20 -8 29 -15 18 -25 10 123 99 452 272 992 450 1531 506 60 6 110 9 112 7 1
-1 -31 -32 -73 -68 -231 -198 -387 -500 -438 -842 -20 -141 -15 -425 11 -568
58 -322 205 -664 428 -1000 123 -185 208 -292 332 -416 250 -251 505 -373 935
-448 l125 -22 -3 -27 c-2 -18 2 -29 13 -33 9 -4 116 2 238 12 175 15 317 19
672 19 248 0 489 -4 538 -8 82 -8 87 -10 87 -32 0 -51 17 -48 437 92 l404 135
132 -75 c73 -41 182 -101 242 -134 108 -57 109 -58 75 -63 -29 -4 -36 -10 -38
-32 -4 -31 -1 -32 113 -48 105 -15 165 -42 214 -95 110 -119 25 -254 -182
-291 -50 -9 -69 -40 -38 -65 19 -16 26 -16 81 -3 124 29 224 100 250 179 18
54 8 142 -21 190 -13 22 -22 49 -21 61 2 13 -5 28 -18 37 -15 10 -19 21 -15
38 3 13 2 29 -2 35 -7 10 -416 269 -521 330 -18 10 -31 23 -29 28 5 15 138 64
214 80 37 7 97 16 133 20 62 6 64 5 43 -10 -26 -19 -30 -46 -9 -63 10 -9 30
-7 82 5 149 34 280 5 347 -79 41 -50 49 -144 17 -195 -11 -18 -26 -35 -33 -38
-7 -2 -31 12 -53 33 -75 72 -217 130 -361 148 -66 9 -93 0 -93 -29 0 -33 19
-46 70 -46 136 0 360 -108 360 -174 0 -25 -30 -57 -75 -77 -37 -17 -45 -53
-16 -69 42 -22 152 55 167 117 4 12 12 23 18 23 24 0 85 72 100 118 32 92 10
180 -62 256 -39 41 -142 96 -179 96 -12 0 -27 9 -33 19 -25 47 -315 54 -475
11 -44 -12 -119 -39 -166 -61 l-85 -40 -150 89 c-82 49 -193 114 -247 146 -78
46 -96 60 -87 71 8 10 26 12 61 8 l49 -6 72 75 c43 43 93 83 121 96 42 20 48
26 45 50 -4 36 -34 40 -90 11 -54 -28 -94 -60 -135 -111 -30 -37 -32 -38 -43
-19 -6 12 -18 21 -27 21 -18 0 -109 -65 -121 -87 -7 -12 -17 -10 -62 18 l-53
33 79 17 c228 49 371 154 519 379 45 69 103 144 129 168 62 57 235 141 211
102 -9 -15 14 -50 33 -50 10 0 23 5 30 12 16 16 15 81 -2 121 -15 38 -69 87
-96 87 -41 0 -51 -60 -12 -75 12 -4 -5 -17 -63 -44 -127 -60 -181 -111 -290
-276 -59 -88 -116 -162 -146 -188 -244 -211 -598 -236 -832 -59 -43 33 -127
133 -127 152 0 4 18 10 40 13 42 5 120 48 269 145 69 45 87 63 103 100 17 39
19 50 9 84 -8 26 -23 46 -44 59 -34 21 -28 21 -218 3 -50 -5 -81 -2 -120 10
-66 21 -133 65 -138 91 -5 33 -22 45 -57 45 -28 0 -38 -7 -61 -42 -43 -64 -39
-114 20 -230 26 -51 47 -97 47 -101 0 -4 19 -35 43 -69 42 -62 42 -64 29 -103
-18 -53 -45 -81 -100 -99 -57 -20 -89 -20 -166 0 -131 34 -261 127 -371 267
-28 35 -36 38 -133 58 -224 44 -392 115 -597 253 -180 121 -214 151 -241 210
-27 59 -32 140 -9 170 32 43 9 105 -34 91 -18 -5 -16 5 21 110 38 108 40 117
25 133 -17 17 -20 16 -88 -12 -13 -6 -9 21 23 141 21 81 37 157 36 168 -2 16
-10 20 -40 19 l-37 -1 16 31 c9 17 40 66 69 109 29 43 51 84 48 92 -9 23 -38
26 -84 10 -40 -14 -42 -14 -29 2 8 10 69 84 137 166 67 81 122 153 122 160 0
18 -21 37 -40 37 -14 0 -283 -311 -367 -423 -42 -56 3 -85 81 -52 20 8 36 13
36 11 0 -3 -17 -38 -38 -78 -21 -40 -45 -91 -53 -113 l-16 -40 -17 40 c-67
153 -134 389 -157 552 l-13 92 29 40 c26 39 27 42 11 60 -16 17 -15 19 6 33
13 8 43 25 68 38 62 31 72 47 44 74 -11 12 -27 15 -57 11 -33 -4 -36 -3 -16 4
14 4 37 15 50 23 13 9 55 24 92 33 79 21 97 41 68 77 l-19 23 51 10 c46 9 52
13 55 38 2 18 -2 29 -12 33 -9 3 -16 10 -16 15 0 10 70 -16 119 -45 26 -15 37
-17 52 -8 16 10 19 7 25 -36 17 -118 83 -274 149 -349 28 -32 36 -36 52 -27
30 18 26 38 -20 110 -60 95 -107 220 -107 286 0 25 2 27 25 18 27 -10 51 -5
58 14 3 6 -4 50 -14 96 -42 191 -53 308 -53 550 0 415 60 698 163 767 43 29
117 31 169 4 39 -20 125 -106 208 -206 83 -100 82 -103 -5 -22 -94 90 -168
129 -251 135 -92 7 -166 -37 -127 -75 13 -13 23 -14 60 -4 82 20 163 -11 264
-103 126 -115 254 -288 341 -462 51 -102 130 -319 119 -330 -2 -3 -44 7 -91
22 -70 21 -89 24 -101 14 -21 -17 -19 -38 10 -89 14 -24 24 -45 23 -46 -2 -1
-17 -9 -34 -18 -16 -9 -113 -77 -215 -151 -166 -123 -188 -136 -225 -136 -64
0 -94 -36 -94 -110 0 -70 26 -113 57 -94 15 10 17 22 15 67 -3 60 6 74 36 56
11 -7 26 -10 33 -6 8 3 102 71 209 151 114 85 216 154 245 165 61 23 74 40 58
81 -6 16 -8 30 -5 30 4 0 37 -10 74 -21 107 -34 116 -14 67 156 -48 166 -125
336 -215 470 -66 100 -39 70 271 -305 152 -184 286 -341 297 -349 17 -13 22
-12 40 7 20 19 20 22 6 44 -47 70 -931 1119 -970 1151 -95 78 -196 96 -285 52z
m-790 -1739 c16 -24 15 -25 -53 -75 -66 -50 -120 -104 -120 -121 0 -20 33 -40
54 -34 20 6 20 6 4 -13 -45 -50 -2 -381 83 -643 67 -205 259 -549 324 -578 24
-11 26 -17 21 -45 -8 -46 15 -145 47 -199 26 -45 88 -97 237 -199 36 -25 106
-85 155 -134 175 -175 408 -305 650 -364 44 -11 98 -22 120 -24 22 -3 78 -22
124 -42 145 -65 292 -59 380 14 l35 29 50 -56 c58 -63 143 -122 216 -148 32
-12 50 -24 50 -34 0 -9 32 -38 71 -65 51 -35 67 -50 57 -56 -8 -5 -55 -20
-104 -35 -84 -26 -100 -28 -279 -28 -181 0 -194 1 -280 29 -49 15 -103 29
-120 29 -26 1 -30 -3 -33 -26 -2 -16 -8 -28 -14 -28 -6 0 -95 14 -197 31 -178
30 -202 38 -214 72 -2 6 -32 12 -68 14 -192 11 -365 144 -420 323 -20 68 -35
85 -64 74 -25 -10 -26 -40 -5 -104 59 -175 226 -321 411 -360 35 -7 67 -19 72
-26 4 -7 22 -17 40 -23 57 -17 526 -93 542 -87 8 3 15 15 15 26 0 16 4 20 19
15 199 -63 467 -55 688 20 l104 36 33 -21 c56 -34 57 -35 46 -173 -5 -70 -10
-162 -11 -205 l-1 -79 -72 -23 c-39 -13 -75 -22 -81 -21 -83 26 -1001 47
-1223 27 -92 -7 -93 -7 -81 12 20 32 -3 49 -84 62 -286 46 -556 155 -818 329
-168 111 -290 214 -444 372 -217 223 -385 458 -511 714 -138 282 -188 486
-188 760 0 196 21 315 80 469 113 293 347 521 629 612 90 29 109 29 128 0z
m41 -732 c26 -75 78 -203 117 -285 65 -135 71 -150 63 -184 l-9 -38 -42 77
c-100 184 -167 378 -203 590 -27 159 -24 205 5 79 13 -56 44 -163 69 -239z
m233 -269 l-14 -50 -26 52 c-15 29 -21 50 -15 48 7 -3 24 1 38 8 31 16 34 7
17 -58z m37 -267 c-3 -13 -12 -34 -19 -47 l-12 -23 -20 28 c-33 48 -35 54 -19
48 8 -3 23 -1 33 5 31 18 45 13 37 -11z m2136 -763 c0 -38 -16 -37 -17 1 -1
18 3 31 8 28 5 -3 9 -16 9 -29z m-1451 -86 c71 -26 247 -69 289 -69 17 0 32
-4 32 -8 0 -4 25 -38 55 -75 31 -37 53 -67 50 -67 -23 0 -208 72 -285 111 -95
48 -224 129 -205 129 6 0 34 -9 64 -21z m1291 -44 c0 -10 -138 -85 -156 -84
-10 0 19 20 66 44 94 49 90 47 90 40z m565 -720 c280 -164 845 -507 886 -538
25 -19 -90 40 -256 131 -203 111 -560 328 -590 360 -18 17 -40 32 -49 32 -15
0 -246 147 -271 173 -14 14 -23 19 280 -158z m-58 -83 c19 -15 22 -30 28 -154
l7 -138 -23 -9 c-13 -4 -35 -12 -48 -16 l-24 -7 7 83 c3 46 8 123 12 172 3 48
9 87 13 87 3 0 16 -8 28 -18z m208 -131 c53 -33 99 -62 102 -64 5 -5 -174 -67
-195 -67 -9 0 -12 26 -12 95 0 52 2 95 4 95 2 0 47 -27 101 -59z m45 -1231
c19 -5 21 -9 10 -14 -23 -9 -133 -46 -138 -46 -3 0 12 16 34 35 40 35 51 38
94 25z m-389 -156 c-31 -13 -61 -10 -61 6 0 13 18 16 58 12 l35 -5 -32 -13z
m-8969 -19 c-3 -16 2 -34 14 -48 10 -12 0 -5 -21 16 -33 31 -37 39 -25 47 26
17 37 11 32 -15z m-80 -224 c294 -663 543 -1493 649 -2164 13 -85 9 -97 -37
-111 -20 -6 -27 7 -84 151 -217 546 -391 1115 -519 1698 -39 179 -104 524
-116 620 l-6 50 26 -55 c15 -30 54 -115 87 -189z m8941 221 c-3 -14 -128 -63
-541 -212 l-536 -193 -120 18 c-179 25 -313 51 -296 58 8 4 322 74 697 157
376 83 706 159 735 169 69 24 67 24 61 3z m-9322 -109 c-5 -16 -19 -50 -32
-76 -20 -41 -34 -54 -91 -83 -36 -20 -106 -67 -154 -106 l-87 -70 28 49 c69
118 150 204 257 274 74 47 90 50 79 12z m139 -273 c45 -654 239 -1318 550
-1880 55 -100 18 -53 -58 74 -257 428 -429 931 -492 1436 -18 145 -29 429 -22
550 6 106 7 109 9 40 2 -41 7 -140 13 -220z m645 80 c82 -74 100 -103 29 -46
-125 101 -261 216 -279 236 -31 35 171 -119 250 -190z m113 169 c156 -39 297
-121 409 -236 40 -41 76 -85 79 -99 4 -14 37 -64 74 -111 61 -76 181 -283 165
-283 -4 0 -26 12 -50 26 -31 18 -54 43 -77 82 -89 156 -320 412 -371 412 -27
0 -47 -17 -47 -40 0 -8 41 -56 91 -105 106 -105 217 -242 178 -220 -141 80
-187 117 -267 219 -86 108 -266 289 -339 341 -24 17 -43 34 -43 38 0 11 112
-2 198 -24z m8392 10 c0 -29 -74 -161 -115 -207 -89 -99 -160 -126 -330 -127
-136 0 -430 24 -418 35 4 4 42 19 83 33 41 15 230 83 420 151 190 69 348 125
353 126 4 0 7 -5 7 -11z m-8699 -244 c252 -402 401 -881 464 -1487 24 -233 18
-240 -30 -31 -123 538 -300 1093 -496 1551 -27 63 -49 117 -49 120 0 13 50
-55 111 -153z m-251 -465 c91 -393 228 -850 385 -1285 l7 -20 -14 20 c-7 11
-42 79 -75 150 -212 445 -352 954 -403 1454 -19 192 -10 193 30 1 21 -102 52
-246 70 -320z m-795 394 c-18 -43 -46 -124 -61 -179 -26 -95 -28 -111 -28
-330 0 -206 2 -241 23 -335 13 -58 26 -114 28 -126 4 -16 -7 -29 -47 -58 -29
-21 -54 -35 -56 -33 -3 2 -14 51 -26 108 -18 87 -22 138 -22 309 -1 190 1 213
26 311 33 129 89 262 148 351 25 37 46 66 47 64 1 -1 -13 -38 -32 -82z m1262
6 c99 -73 103 -77 122 -135 43 -136 122 -562 120 -650 -1 -36 2 -43 -45 125
-64 231 -180 513 -284 689 -17 29 -28 52 -23 50 4 -2 54 -38 110 -79z m-920
31 c-8 -31 -16 -40 -38 -45 -36 -7 -164 -111 -218 -177 -58 -71 -69 -81 -47
-44 60 98 168 211 261 273 27 18 49 32 50 32 1 0 -2 -18 -8 -39z m8110 -42
c45 -7 80 -16 78 -20 -3 -4 -26 -14 -51 -23 l-45 -15 -55 36 c-59 39 -66 48
-31 40 12 -3 59 -11 104 -18z m-194 -34 c42 -25 77 -49 77 -53 0 -7 -562 -213
-567 -208 -1 1 37 30 85 64 49 34 137 102 198 151 60 49 114 90 119 90 6 1 45
-19 88 -44z m-7814 -625 c6 -41 11 -78 11 -82 0 -4 -36 -26 -80 -48 l-80 -40
0 52 c0 159 36 416 88 623 l37 150 7 -290 c3 -159 11 -324 17 -365z m8441 599
c91 -11 240 -23 333 -26 164 -6 167 -6 150 -25 -30 -33 -146 -104 -205 -126
-49 -18 -58 -19 -68 -7 -18 22 -40 18 -67 -11 -23 -25 -28 -26 -90 -20 -36 4
-88 12 -115 17 -53 12 -290 127 -295 144 -3 9 154 73 182 74 6 0 84 -8 175
-20z m-8606 -130 c-15 -68 -20 -77 -59 -106 -76 -57 -162 -186 -202 -303 l-18
-55 -3 74 c-3 69 0 80 36 155 49 101 115 189 195 260 34 30 63 54 64 52 2 -2
-4 -36 -13 -77z m8208 9 c14 -10 64 -38 109 -63 60 -32 79 -46 67 -50 -10 -4
-22 -21 -28 -38 -6 -18 -19 -43 -30 -57 -12 -15 -18 -18 -14 -7 3 9 3 28 0 42
-11 43 -42 30 -118 -47 -64 -67 -70 -71 -80 -53 -23 42 -31 41 -125 -18 -47
-29 -63 -45 -62 -61 1 -33 33 -81 56 -84 21 -3 106 36 172 80 l34 22 -17 -27
c-23 -34 -13 -67 19 -67 28 0 110 63 157 122 47 57 91 146 85 170 -4 15 -2 18
11 13 56 -22 175 -45 234 -45 l69 0 -6 -92 c-7 -108 -47 -896 -70 -1398 -9
-190 -18 -355 -21 -367 -2 -13 -13 -23 -27 -25 -15 -2 -23 -11 -25 -29 -5 -41
91 -286 185 -477 92 -186 122 -222 182 -222 28 0 31 -2 21 -19 -16 -31 -4 -44
75 -80 208 -93 311 -340 225 -539 -43 -99 -113 -137 -239 -130 -63 4 -91 12
-165 46 -49 23 -97 42 -107 42 -17 0 -16 3 6 36 14 20 29 53 35 73 13 46 12
183 -1 241 -16 68 -63 161 -108 208 -34 38 -42 42 -60 32 -30 -16 -26 -39 18
-98 98 -130 121 -345 45 -428 -23 -24 -31 -26 -79 -22 -80 7 -256 109 -356
208 -91 91 -120 146 -127 248 -2 40 -8 75 -13 78 -5 2 -6 17 -3 33 4 20 -1 38
-20 65 -62 92 -84 197 -116 571 -36 419 -77 757 -146 1200 -52 337 -76 432
-143 560 -40 78 -149 195 -180 195 -16 0 -41 -26 -41 -42 0 -2 30 -35 68 -73
118 -122 154 -227 216 -616 40 -250 96 -656 96 -695 0 -36 -121 -195 -220
-287 -110 -104 -293 -222 -387 -251 -49 -16 -21 24 50 70 39 25 90 61 113 80
23 18 69 49 102 69 34 20 62 40 62 44 0 5 18 20 40 35 29 19 40 33 40 52 0 15
19 48 50 85 64 77 130 174 130 191 0 34 -55 52 -66 23 -4 -8 -13 -15 -22 -15
-9 0 -58 -28 -110 -62 -79 -52 -93 -65 -89 -84 4 -21 -5 -27 -82 -57 -119 -48
-132 -80 -50 -117 l42 -18 -64 -20 c-35 -11 -85 -22 -110 -26 -61 -9 -165 15
-238 54 -62 34 -74 36 -91 15 -23 -27 -1 -54 73 -89 66 -32 107 -43 227 -64
l44 -7 -76 -48 -75 -47 -79 21 c-104 27 -267 35 -375 20 -46 -7 -139 -30 -207
-52 -151 -48 -210 -52 -108 -8 85 36 98 46 94 73 -3 19 -11 21 -90 26 l-88 5
133 80 c133 81 157 106 123 130 -10 8 -32 9 -63 5 -27 -5 -49 -6 -51 -5 -2 2
6 13 18 25 30 30 24 74 -12 78 -19 2 -30 -3 -38 -17 -24 -46 -80 -11 -80 51 0
21 16 79 35 128 49 125 46 200 -7 200 -22 0 -39 -30 -32 -57 3 -11 -11 -62
-30 -113 -20 -51 -39 -110 -42 -131 -8 -49 17 -121 52 -148 24 -19 24 -19 7
-51 -18 -30 -17 -32 3 -48 21 -17 19 -19 -95 -88 -82 -50 -117 -77 -119 -92
-5 -30 30 -45 81 -37 23 4 39 4 35 0 -4 -4 -65 -32 -135 -62 -135 -57 -159
-74 -143 -104 13 -24 106 -42 186 -37 34 2 60 0 58 -4 -11 -17 -92 -57 -144
-72 -30 -8 -109 -20 -175 -26 -66 -6 -137 -15 -158 -20 -38 -8 -39 -8 -31 18
28 101 -4 115 -107 46 -65 -43 -206 -110 -214 -102 -2 2 13 36 33 76 28 57 34
77 25 90 -20 32 -48 23 -152 -48 -57 -39 -106 -69 -109 -66 -3 3 2 61 10 128
16 128 12 158 -20 158 -25 0 -42 -20 -42 -49 l0 -25 -16 22 c-18 26 -31 28
-56 5 -17 -15 -20 -15 -46 9 -39 37 -73 52 -202 88 -63 18 -131 41 -152 51
-35 18 -78 66 -78 88 0 6 -9 20 -20 31 -17 17 -24 18 -41 9 -11 -6 -22 -9 -23
-7 -40 65 -60 88 -89 101 -44 21 -67 21 -133 0 -50 -15 -54 -15 -80 2 l-28 18
24 10 c72 30 493 238 615 304 77 42 329 190 560 328 604 363 623 373 810 434
309 102 593 224 885 381 147 78 214 106 600 245 239 86 451 163 470 170 37 13
50 10 102 -27z m-6947 -20 c29 -35 35 -49 31 -71 -3 -16 5 -72 18 -125 49
-193 61 -302 61 -542 0 -172 -4 -254 -19 -347 -11 -68 -22 -123 -25 -123 -4 0
-12 48 -18 107 -11 101 -10 108 8 121 16 11 19 26 19 90 0 211 -40 547 -94
788 -18 79 -29 144 -25 144 4 0 24 -19 44 -42z m299 -172 c65 -37 71 -43 103
-113 70 -152 116 -328 129 -495 5 -73 9 -86 32 -105 l25 -21 -36 -114 c-21
-62 -52 -144 -71 -183 l-33 -70 5 120 c5 132 -9 280 -39 420 -10 49 -19 117
-19 151 0 53 -3 65 -23 81 -14 10 -38 55 -57 103 -18 47 -56 130 -84 185 -28
55 -53 104 -55 110 -2 5 9 1 25 -10 16 -10 60 -37 98 -59z m-1614 -128 c-27
-185 -22 -635 10 -806 6 -32 5 -40 -4 -32 -24 19 -115 206 -149 305 -50 145
-52 160 -28 184 15 15 21 34 21 69 0 59 23 149 55 221 29 63 97 159 103 143 2
-6 -2 -44 -8 -84z m297 30 c-3 -8 -6 -5 -6 6 -1 11 2 17 5 13 3 -3 4 -12 1
-19z m50 -250 c-1 -4 -8 -3 -16 2 -15 9 -30 105 -30 190 0 34 6 18 24 -70 14
-63 23 -118 22 -122z m1234 -9 l39 -116 -10 -104 c-27 -267 -101 -566 -189
-759 -19 -41 -21 -43 -21 -16 0 15 11 65 25 110 35 117 72 312 86 451 14 146
6 443 -15 570 -9 50 -15 95 -15 100 1 20 62 -124 100 -236z m334 129 c16 -69
34 -309 22 -298 -3 3 -15 50 -26 105 -17 84 -56 214 -86 288 -7 18 -5 18 33
-2 38 -19 41 -24 57 -93z m-1542 -200 c4 -30 -5 -47 -26 -48 -15 0 -19 32 -7
56 18 33 27 30 33 -8z m-123 -65 c0 -13 -26 -30 -83 -57 -45 -22 -85 -42 -89
-44 -5 -2 -8 6 -8 17 0 16 19 30 78 60 87 45 102 48 102 24z m-825 -85 c15
-46 38 -109 51 -140 25 -61 30 -88 15 -88 -9 0 -59 143 -81 230 -6 25 -13 53
-16 63 -3 9 -3 17 0 17 2 0 17 -37 31 -82z m999 -34 c10 -31 16 -58 13 -60 -3
-3 -17 -6 -33 -7 -27 -2 -29 1 -38 51 -7 43 -6 56 5 63 27 17 35 9 53 -47z
m-144 -50 c7 -30 10 -57 8 -58 -16 -14 -198 -93 -202 -88 -3 3 -6 28 -6 57 0
46 3 52 32 69 44 27 142 76 150 76 4 0 12 -25 18 -56z m-873 -199 c3 -13 -5
-29 -21 -44 -14 -14 -28 -23 -30 -20 -8 8 -26 161 -26 217 l1 57 35 -95 c20
-52 38 -104 41 -115z m373 141 c0 -18 -108 -87 -116 -74 -3 5 4 17 17 26 13 9
37 27 54 39 35 26 45 28 45 9z m740 -161 c94 -238 206 -453 346 -667 69 -107
69 -122 -3 -116 -30 2 -38 7 -38 23 -1 29 -43 112 -60 119 -22 8 -136 186
-194 303 -62 124 -83 175 -132 323 l-38 115 27 12 c15 7 31 11 35 10 5 -2 30
-56 57 -122z m-680 19 c0 -11 -100 -104 -112 -104 -10 0 -30 59 -23 70 3 6 30
26 58 45 48 32 53 34 65 18 6 -9 12 -22 12 -29z m518 -80 c53 -157 123 -313
191 -429 28 -48 50 -90 47 -92 -7 -7 -147 67 -226 120 -41 28 -112 87 -156
131 l-81 81 -18 108 c-9 60 -15 110 -13 112 8 9 193 95 203 95 6 0 30 -57 53
-126z m1319 -21 c-11 -241 -43 -352 -133 -456 -34 -40 -74 -83 -89 -97 l-27
-25 27 60 c106 233 151 372 210 643 13 57 17 9 12 -125z m-2126 64 c-13 -13
-26 -3 -16 12 3 6 11 8 17 5 6 -4 6 -10 -1 -17z m394 -139 c83 -121 111 -155
210 -247 94 -87 210 -169 313 -220 56 -28 61 -34 52 -51 -20 -38 22 -82 136
-140 75 -40 39 -30 -100 25 -268 108 -522 292 -706 512 -44 53 -79 100 -78
104 3 7 109 99 115 99 1 0 28 -37 58 -82z m-507 21 c-32 -40 -48 -49 -48 -27
0 17 61 78 72 72 4 -3 -6 -23 -24 -45z m188 10 c22 -44 3 -60 -24 -21 -16 22
-18 32 -10 40 16 16 15 16 34 -19z m-76 -109 c0 -3 -19 -20 -41 -39 -36 -29
-43 -32 -55 -19 -13 12 -10 20 22 62 l37 49 18 -24 c10 -13 19 -26 19 -29z
m227 -98 c15 -20 75 -84 133 -142 100 -99 83 -94 -44 15 -61 51 -186 191 -186
207 0 15 66 -40 97 -80z m-102 -60 c134 -149 295 -277 455 -363 30 -17 46 -27
35 -24 -147 47 -308 120 -415 190 -41 28 -111 84 -155 127 l-80 76 40 36 c22
19 42 35 45 36 3 0 36 -35 75 -78z m2585 -107 c16 -8 41 -35 55 -60 14 -25 37
-65 51 -90 l25 -46 -28 7 c-62 15 -125 48 -158 85 -38 42 -45 78 -19 103 19
20 37 20 74 1z m635 -205 c12 0 26 5 31 10 16 16 59 -22 51 -43 -8 -22 -25
-21 -87 3 -28 11 -63 20 -78 21 -26 0 -25 1 8 14 20 7 39 9 45 4 5 -5 18 -9
30 -9z m-2194 -20 l24 -21 -35 17 c-43 21 -47 24 -28 24 9 0 26 -9 39 -20z
m7254 -204 l8 -99 -69 6 c-67 5 -127 19 -151 35 -8 5 10 31 58 82 39 41 85 94
103 119 l31 43 6 -43 c4 -24 10 -89 14 -143z m-340 154 c-3 -5 -14 -10 -23
-10 -15 0 -15 2 -2 10 20 13 33 13 25 0z m-4753 -29 c29 -11 62 -21 73 -23 17
-4 15 -7 -15 -26 -63 -39 -140 -25 -140 27 0 47 7 49 82 22z m1298 -31 c49
-46 91 -53 163 -29 54 18 61 19 83 4 28 -18 50 -57 59 -108 4 -21 16 -42 26
-47 23 -13 25 -13 44 6 15 15 19 13 51 -20 46 -48 69 -58 215 -102 159 -47
193 -64 208 -106 30 -80 51 -83 101 -15 22 30 36 42 38 33 2 -9 -4 -73 -12
-144 -9 -70 -16 -131 -16 -135 0 -3 9 -15 20 -25 19 -17 19 -21 5 -68 -28 -94
-126 -174 -212 -174 -74 1 -95 40 -82 151 19 164 -1 337 -40 359 -32 17 -55
-10 -47 -56 27 -151 27 -161 15 -259 -14 -113 -34 -163 -82 -199 -84 -64 -202
-33 -253 65 -21 42 -17 125 11 220 50 165 41 299 -18 299 -32 0 -38 -19 -28
-74 9 -50 0 -123 -24 -195 -8 -26 -19 -67 -23 -91 -7 -39 -11 -45 -42 -53 -84
-22 -116 36 -106 199 10 184 -25 376 -70 382 -40 6 -49 -21 -28 -91 15 -50 19
-97 20 -247 0 -152 3 -191 17 -219 l17 -33 -28 6 c-15 4 -72 9 -127 12 -93 6
-159 -3 -305 -37 -20 -5 -26 60 -10 116 14 51 49 97 57 75 14 -36 92 -98 131
-105 56 -9 110 17 129 63 27 66 -17 131 -124 181 -43 20 -52 29 -57 56 -4 18
-15 44 -26 58 -11 14 -17 28 -13 30 5 2 53 19 108 37 140 46 191 75 222 128
30 51 28 110 -6 146 -19 20 -19 36 0 36 4 0 21 -13 39 -30z m-3415 -20 c3 -6
-1 -7 -9 -4 -18 7 -21 14 -7 14 6 0 13 -4 16 -10z m-185 -40 c0 -5 -9 -10 -21
-10 -11 0 -17 5 -14 10 3 6 13 10 21 10 8 0 14 -4 14 -10z m2340 -70 c-20 -13
-33 -13 -25 0 3 6 14 10 23 10 15 0 15 -2 2 -10z m4300 -197 l35 -15 -45 -14
c-25 -8 -79 -20 -120 -28 -85 -17 -288 -32 -279 -22 4 4 71 25 150 47 79 23
148 45 154 50 11 11 54 3 105 -18z m-916 -32 c6 -8 -40 -21 -73 -21 -11 1 -8
5 9 15 29 16 56 19 64 6z m-2539 -34 c20 -20 20 -20 0 -13 -11 4 -42 12 -70
18 -39 9 -46 12 -30 18 29 11 77 0 100 -23z m-150 -57 c39 -6 87 -16 108 -21
l38 -10 -36 -41 c-61 -66 -85 -130 -85 -223 l0 -80 -188 -78 c-247 -104 -334
-129 -442 -131 -87 -1 -114 7 -157 47 -71 64 -40 184 69 267 92 69 564 292
603 285 11 -2 52 -9 90 -15z m285 -85 c70 -36 89 -87 36 -93 -31 -4 -77 32
-101 79 -22 42 0 47 65 14z m1440 -70 c-28 -33 -90 -77 -90 -63 0 8 19 28 43
45 46 34 67 42 47 18z m-1180 -242 c106 -29 190 -96 190 -153 0 -63 -60 -85
-219 -77 -129 5 -195 25 -278 80 -49 33 -117 113 -108 127 5 8 147 38 205 43
57 5 151 -4 210 -20z m220 -2 c0 -11 3 -26 6 -35 3 -8 -8 -3 -24 12 -25 23
-27 28 -13 34 26 11 31 9 31 -11z m4896 -75 c97 -45 164 -134 164 -218 l-1
-43 -36 68 c-40 75 -126 162 -201 203 -46 25 -46 25 -13 19 19 -3 58 -16 87
-29z"/>
<path d="M12312 9730 c-142 -20 -298 -73 -465 -157 -40 -19 -193 -109 -342
-198 -290 -174 -346 -205 -478 -260 -93 -38 -101 -40 -92 -25 3 6 4 19 0 29
-4 14 -28 24 -103 41 -134 30 -132 29 -132 50 0 26 -33 46 -110 66 -36 9 -67
18 -68 19 -2 2 10 11 27 20 37 19 43 60 11 70 -26 8 -691 -74 -707 -87 -19
-15 -16 -46 5 -56 14 -8 236 14 424 43 37 5 37 5 32 -24 -4 -18 -1 -32 7 -37
7 -4 55 -6 106 -5 l94 2 -6 -24 c-4 -14 -1 -28 7 -34 15 -13 349 -93 385 -93
14 0 22 -4 19 -9 -9 -13 3 -39 20 -45 23 -9 185 58 315 129 64 35 195 112 290
171 357 220 571 314 775 340 l57 7 -19 -25 c-16 -22 -29 -26 -89 -31 -118 -10
-268 -74 -445 -192 -165 -110 -350 -290 -442 -427 -28 -43 -25 -78 7 -78 11 0
13 -8 9 -28 -9 -46 10 -53 101 -37 81 15 165 19 165 10 0 -3 -9 -18 -21 -34
-26 -35 -36 -105 -19 -126 25 -31 76 -4 63 33 -3 6 0 12 6 12 6 0 9 -32 8 -87
-2 -86 -1 -88 22 -91 13 -2 28 1 34 7 23 23 37 11 37 -31 0 -85 61 -152 90
-98 7 13 8 26 2 33 -5 7 -12 38 -15 71 -6 63 -32 102 -71 108 -19 3 -21 10
-21 60 0 45 -5 61 -24 81 l-23 25 61 29 c64 29 82 53 59 80 -11 14 -33 15
-158 10 -80 -3 -171 -11 -203 -17 -33 -6 -61 -9 -64 -6 -10 10 93 134 201 241
123 121 229 201 372 280 163 91 252 108 406 80 31 -6 38 -4 48 15 10 19 8 26
-12 47 l-23 25 26 -12 c15 -7 33 -23 40 -37 24 -44 69 -53 83 -16 8 19 -26 76
-61 103 l-26 20 27 0 c14 0 26 -4 26 -9 0 -4 26 -18 59 -30 80 -29 85 -37 76
-118 -19 -181 -81 -410 -171 -633 -84 -207 -336 -697 -425 -827 -38 -54 -79
-87 -93 -73 -14 14 -42 12 -56 -5 -9 -11 -8 -28 9 -82 43 -139 54 -214 54
-368 1 -154 -9 -225 -45 -352 -17 -57 -24 -71 -34 -62 -7 6 -23 9 -35 7 -18
-2 -28 -17 -46 -67 -12 -35 -38 -91 -56 -125 -27 -48 -39 -62 -61 -64 -21 -3
-39 -22 -88 -95 -73 -111 -250 -290 -359 -364 -42 -29 -119 -74 -170 -101 -98
-49 -118 -74 -84 -102 14 -11 28 -8 98 26 210 101 428 282 540 446 18 26 39
48 48 48 30 0 134 135 169 219 10 25 15 29 30 21 39 -21 61 11 109 159 46 139
56 217 56 411 -1 158 -4 198 -23 274 l-23 90 28 23 c16 12 31 22 35 23 27 1
198 298 357 620 162 327 249 573 293 826 18 102 24 122 42 130 33 14 30 45 -9
92 -20 23 -34 46 -30 52 3 5 1 18 -4 28 -23 43 -270 73 -419 52z"/>
<path d="M9125 8214 c-53 -9 -129 -36 -183 -66 -46 -26 -53 -34 -50 -56 4 -38
28 -38 100 -3 34 17 63 29 66 27 2 -3 -6 -19 -18 -36 -28 -39 -56 -120 -65
-187 -14 -107 36 -240 122 -326 140 -140 348 -161 521 -51 30 20 52 29 52 21
0 -6 -7 -45 -17 -85 -16 -68 -16 -73 0 -90 37 -36 67 16 88 151 46 292 -119
588 -376 677 -59 21 -182 33 -240 24z m202 -90 c26 -9 68 -27 92 -41 38 -22
41 -27 27 -35 -14 -8 -21 -5 -32 11 -22 30 -37 26 -80 -21 -86 -94 -124 -193
-124 -323 0 -78 2 -88 25 -110 30 -31 53 -31 107 -4 104 53 207 205 211 310
l2 50 19 -23 c64 -80 127 -308 83 -308 -7 0 -37 -18 -66 -40 -137 -103 -321
-91 -441 30 -73 72 -95 128 -95 235 0 108 20 159 91 235 42 45 51 50 90 50 24
0 65 -7 91 -16z"/>
<path d="M10855 7873 c-168 -61 -277 -194 -354 -436 -17 -53 -31 -99 -31 -101
0 -15 35 -36 51 -31 13 4 31 -6 60 -33 107 -103 273 -146 410 -106 154 45 282
198 296 354 3 33 10 63 14 66 47 29 -94 214 -205 271 -68 35 -170 41 -241 16z
m236 -98 c23 -17 61 -52 83 -79 40 -47 41 -49 41 -125 -1 -64 -6 -87 -31 -141
-37 -78 -97 -140 -170 -176 -48 -23 -63 -26 -141 -23 -76 3 -98 9 -155 37 -63
31 -148 109 -148 135 0 32 67 181 108 241 43 63 153 158 167 145 2 -3 -6 -21
-20 -39 -91 -123 -93 -317 -6 -446 15 -21 35 -40 45 -42 27 -6 81 52 113 122
25 54 28 72 28 161 0 87 -3 107 -26 156 -29 62 -64 103 -79 94 -6 -4 -10 -1
-10 5 0 9 24 11 79 9 69 -4 85 -8 122 -34z"/>
<path d="M8490 7292 c-19 -16 -21 -22 -11 -40 10 -18 21 -22 71 -24 33 -1 70
-2 82 -2 33 -1 50 50 23 70 -29 21 -137 19 -165 -4z"/>
<path d="M3683 2593 c-46 -60 -70 -103 -91 -168 -30 -92 -35 -141 -16 -159 20
-20 29 -20 49 0 14 15 16 7 13 -102 l-3 -119 25 -3 c18 -3 31 -15 45 -45 21
-45 53 -59 74 -33 10 11 6 29 -20 90 -17 42 -36 76 -41 76 -5 0 -6 67 -2 163
6 148 5 164 -10 170 -17 7 -15 12 47 100 15 20 16 30 7 46 -16 31 -45 25 -77
-16z"/>
</g>
</svg>
